<svg width="79" height="77" viewBox="0 0 79 77" fill="none" xmlns="http://www.w3.org/2000/svg">
<rect width="78.2748" height="76.2747" rx="38.1374" fill="#FF1A44"/>
<path d="M43.1895 32.0321L46.5177 28.7057L43.1895 25.3792C42.9172 25.107 42.7643 24.7377 42.7643 24.3526C42.7643 23.9676 42.9172 23.5983 43.1895 23.3261C43.4618 23.0538 43.831 22.9008 44.2161 22.9008C44.6011 22.9008 44.9704 23.0538 45.2427 23.3261L48.5691 26.6543L51.8955 23.3261C52.1678 23.0538 52.5371 22.9008 52.9221 22.9008C53.3071 22.9008 53.6764 23.0538 53.9487 23.3261C54.221 23.5983 54.3739 23.9676 54.3739 24.3526C54.3739 24.7377 54.221 25.107 53.9487 25.3792L50.6223 28.7057L53.9487 32.0321C54.0835 32.1669 54.1904 32.3269 54.2634 32.5031C54.3364 32.6792 54.3739 32.868 54.3739 33.0587C54.3739 33.2493 54.3364 33.4381 54.2634 33.6143C54.1904 33.7904 54.0835 33.9504 53.9487 34.0853C53.8139 34.2201 53.6538 34.327 53.4777 34.4C53.3015 34.4729 53.1128 34.5105 52.9221 34.5105C52.7314 34.5105 52.5427 34.4729 52.3665 34.4C52.1904 34.327 52.0303 34.2201 51.8955 34.0853L48.5691 30.757L45.2427 34.0853C44.9704 34.3575 44.6011 34.5105 44.2161 34.5105C43.831 34.5105 43.4618 34.3575 43.1895 34.0853C42.9172 33.813 42.7643 33.4437 42.7643 33.0587C42.7643 32.6736 42.9172 32.3044 43.1895 32.0321ZM55.523 44.3874L46.9784 40.5585L46.9549 40.5477C46.5113 40.3579 46.0274 40.2818 45.547 40.3261C45.0665 40.3705 44.6048 40.5339 44.2034 40.8016C44.1561 40.8328 44.1107 40.8667 44.0673 40.9032L39.6581 44.6667C36.8613 43.3082 33.9738 40.4425 32.6153 37.6819L36.3843 33.2001C36.4206 33.1548 36.455 33.1095 36.4877 33.0605C36.7496 32.6602 36.9086 32.2013 36.9503 31.7248C36.9921 31.2482 36.9154 30.7687 36.7271 30.329V30.3072L32.8874 21.7481C32.6384 21.1736 32.2103 20.6951 31.667 20.3839C31.1238 20.0727 30.4944 19.9455 29.8729 20.0214C27.4152 20.3448 25.1593 21.5518 23.5265 23.4169C21.8936 25.2821 20.9956 27.6778 21 30.1567C21 44.5579 32.7169 56.2747 47.1181 56.2747C49.597 56.2792 51.9927 55.3811 53.8578 53.7483C55.723 52.1155 56.9299 49.8595 57.2534 47.4018C57.3294 46.7806 57.2025 46.1514 56.8916 45.6081C56.5808 45.0648 56.1026 44.6366 55.5285 44.3874H55.523Z" fill="white" fill-opacity="0.89"/>
</svg>
