<svg width="89" height="86" viewBox="0 0 89 86" fill="none" xmlns="http://www.w3.org/2000/svg">
<rect width="89" height="86" rx="43" fill="#0D0D0D" fill-opacity="0.49"/>
<rect x="0.5" y="0.5" width="88" height="85" rx="42.5" stroke="black" stroke-opacity="0.05"/>
<g clip-path="url(#clip0_140_378)">
<path d="M68.1994 49.6585C68.4906 49.9328 68.6542 50.3048 68.6542 50.6926C68.6542 51.0805 68.4906 51.4525 68.1994 51.7268C67.9083 52.001 67.5134 52.1551 67.1016 52.1551C66.6899 52.1551 66.295 52.001 66.0038 51.7268L62.4465 48.3741L58.8893 51.7268C58.5981 52.001 58.2032 52.1551 57.7915 52.1551C57.3797 52.1551 56.9848 52.001 56.6936 51.7268C56.4025 51.4525 56.2389 51.0805 56.2389 50.6926C56.2389 50.3048 56.4025 49.9328 56.6936 49.6585L60.2528 46.3076L56.6936 42.9567C56.4025 42.6825 56.2389 42.3105 56.2389 41.9226C56.2389 41.5347 56.4025 41.1627 56.6936 40.8885C56.9848 40.6142 57.3797 40.4601 57.7915 40.4601C58.2032 40.4601 58.5981 40.6142 58.8893 40.8885L62.4465 44.2412L66.0038 40.8885C66.295 40.6142 66.6899 40.4601 67.1016 40.4601C67.5134 40.4601 67.9083 40.6142 68.1994 40.8885C68.4906 41.1627 68.6542 41.5347 68.6542 41.9226C68.6542 42.3105 68.4906 42.6825 68.1994 42.9567L64.6402 46.3076L68.1994 49.6585ZM32.1885 37.5376H26.7576C25.9345 37.5376 25.1451 37.8456 24.5631 38.3938C23.9811 38.942 23.6542 39.6856 23.6542 40.4609V52.1543C23.6542 52.9296 23.9811 53.6732 24.5631 54.2214C25.1451 54.7697 25.9345 55.0777 26.7576 55.0777H32.1885C32.3943 55.0777 32.5916 55.0007 32.7371 54.8636C32.8826 54.7266 32.9643 54.5407 32.9643 54.3468V38.2684C32.9643 38.0746 32.8826 37.8887 32.7371 37.7516C32.5916 37.6146 32.3943 37.5376 32.1885 37.5376ZM51.0319 27.6439C50.7602 27.4321 50.4201 27.3139 50.0675 27.3085C49.715 27.3032 49.371 27.4112 49.0923 27.6146L36.3742 36.9328C36.2798 37.0003 36.2032 37.0873 36.15 37.1871C36.0969 37.2868 36.0688 37.3967 36.0677 37.5083V55.1069C36.0681 55.2181 36.0953 55.3277 36.1474 55.4274C36.1995 55.5271 36.2751 55.6144 36.3684 55.6824L49.0864 65.0006C49.3328 65.181 49.6311 65.2873 49.9425 65.3055C50.2539 65.3238 50.5639 65.2532 50.8321 65.1029C51.0681 64.9646 51.262 64.7711 51.3949 64.5412C51.5278 64.3113 51.5952 64.0528 51.5905 63.7911V28.8132C51.5934 28.5912 51.5443 28.3713 51.4468 28.1692C51.3492 27.9671 51.2056 27.7877 51.0261 27.6439H51.0319Z" fill="#B6B6B6"/>
</g>
<defs>
<clipPath id="clip0_140_378">
<rect width="53" height="38" fill="white" transform="translate(22 24)"/>
</clipPath>
</defs>
</svg>
