<svg width="89" height="86" viewBox="0 0 89 86" fill="none" xmlns="http://www.w3.org/2000/svg">
<rect width="89" height="86" rx="43" fill="#0D0D0D"/>
<path d="M49.9276 25.5049V60.4827C49.9323 60.7445 49.8649 61.0029 49.732 61.2328C49.5991 61.4628 49.4052 61.6563 49.1693 61.7946C48.9012 61.9448 48.5912 62.0154 48.2798 61.9972C47.9684 61.9789 47.6701 61.8727 47.4238 61.6923L34.7071 52.3741C34.6149 52.3055 34.5404 52.218 34.4894 52.1183C34.4383 52.0186 34.4119 51.9093 34.4123 51.7986V34.2C34.4126 34.0888 34.4399 33.9792 34.492 33.8795C34.5441 33.7798 34.6196 33.6925 34.7129 33.6245L47.4296 24.3063C47.7083 24.1028 48.0523 23.9949 48.4048 24.0002C48.7573 24.0055 49.0974 24.1238 49.369 24.3355C49.5475 24.4799 49.69 24.6595 49.7865 24.8616C49.883 25.0637 49.9312 25.2833 49.9276 25.5049ZM30.5334 34.2292H25.1031C24.2801 34.2292 23.4908 34.5372 22.9089 35.0855C22.3269 35.6337 22 36.3773 22 37.1526V48.846C22 49.6213 22.3269 50.3649 22.9089 50.9131C23.4908 51.4613 24.2801 51.7693 25.1031 51.7693H30.5334C30.7392 51.7693 30.9365 51.6923 31.082 51.5553C31.2275 51.4182 31.3092 51.2323 31.3092 51.0385V34.9601C31.3092 34.7662 31.2275 34.5803 31.082 34.4433C30.9365 34.3062 30.7392 34.2292 30.5334 34.2292ZM55.1194 38.0369C54.9662 38.1637 54.841 38.3178 54.7511 38.4902C54.6611 38.6627 54.6082 38.8502 54.5952 39.0419C54.5822 39.2337 54.6095 39.426 54.6755 39.6078C54.7415 39.7896 54.8449 39.9574 54.9798 40.1015C55.7281 40.9022 56.141 41.9324 56.141 42.9993C56.141 44.0661 55.7281 45.0963 54.9798 45.897C54.8413 46.0404 54.7344 46.2084 54.6654 46.391C54.5965 46.5737 54.5668 46.7675 54.5781 46.9611C54.5894 47.1547 54.6414 47.3442 54.7312 47.5187C54.821 47.6931 54.9468 47.849 55.1012 47.9772C55.2556 48.1055 55.4355 48.2035 55.6304 48.2656C55.8254 48.3277 56.0315 48.3526 56.2368 48.3389C56.4421 48.3252 56.6425 48.2731 56.8262 48.1858C57.01 48.0985 57.1734 47.9775 57.3071 47.8301C58.555 46.4955 59.2435 44.7779 59.2435 42.9993C59.2435 41.2207 58.555 39.5031 57.3071 38.1684C57.1724 38.0238 57.0088 37.9057 56.8256 37.8208C56.6423 37.7359 56.4431 37.6859 56.2393 37.6737C56.0355 37.6614 55.8312 37.6872 55.638 37.7496C55.4449 37.8119 55.2666 37.9095 55.1136 38.0369H55.1194ZM63.0497 33.2554C62.9162 33.1051 62.752 32.9816 62.5668 32.8922C62.3816 32.8029 62.1792 32.7496 61.9717 32.7355C61.7642 32.7213 61.5558 32.7466 61.3588 32.8099C61.1619 32.8732 60.9805 32.9731 60.8254 33.1038C60.6704 33.2344 60.5448 33.3931 60.4561 33.5705C60.3674 33.7478 60.3175 33.9401 60.3094 34.1359C60.3012 34.3318 60.3349 34.5272 60.4086 34.7105C60.4822 34.8938 60.5942 35.0613 60.7379 35.2031C62.7737 37.347 63.8992 40.1227 63.8992 42.9993C63.8992 45.8759 62.7737 48.6515 60.7379 50.7955C60.5942 50.9372 60.4822 51.1047 60.4086 51.288C60.3349 51.4713 60.3012 51.6667 60.3094 51.8626C60.3175 52.0585 60.3674 52.2508 60.4561 52.4281C60.5448 52.6054 60.6704 52.7641 60.8254 52.8948C60.9805 53.0254 61.1619 53.1254 61.3588 53.1886C61.5558 53.2519 61.7642 53.2772 61.9717 53.2631C62.1792 53.2489 62.3816 53.1956 62.5668 53.1063C62.752 53.017 62.9162 52.8935 63.0497 52.7432C65.5936 50.0634 67 46.5944 67 42.9993C67 39.4042 65.5936 35.9352 63.0497 33.2554Z" fill="#B6B6B6"/>
</svg>
