<svg width="81" height="81" viewBox="0 0 81 81" fill="none" xmlns="http://www.w3.org/2000/svg">
<rect width="81" height="81" rx="40.5" fill="#0D0D0D"/>
<path d="M49.3125 30V51C49.3125 51.7956 49.003 52.5587 48.4521 53.1213C47.9012 53.6839 47.1541 54 46.375 54H19.9375C19.1584 54 18.4113 53.6839 17.8604 53.1213C17.3095 52.5587 17 51.7956 17 51V30C17 29.2044 17.3095 28.4413 17.8604 27.8787C18.4113 27.3161 19.1584 27 19.9375 27H46.375C47.1541 27 47.9012 27.3161 48.4521 27.8787C49.003 28.4413 49.3125 29.2044 49.3125 30ZM59.9609 30.0469C59.7537 29.9951 59.5381 29.9887 59.3283 30.0281C59.1185 30.0676 58.9193 30.1519 58.7437 30.2756L52.5768 34.4738C52.4762 34.5423 52.3937 34.6352 52.3367 34.7441C52.2797 34.853 52.2499 34.9746 52.25 35.0981V45.9019C52.2499 46.0254 52.2797 46.147 52.3367 46.2559C52.3937 46.3648 52.4762 46.4577 52.5768 46.5262L58.7786 50.7488C59.0107 50.9069 59.2822 50.9942 59.5611 51.0005C59.8401 51.0068 60.1151 50.9319 60.3538 50.7844C60.5747 50.641 60.7559 50.442 60.88 50.2067C61.0041 49.9713 61.0669 49.7073 61.0625 49.44V31.5C61.0627 31.1673 60.9545 30.844 60.7551 30.581C60.5557 30.3179 60.2763 30.13 59.9609 30.0469Z" fill="#B6B6B6"/>
</svg>
