<svg width="81" height="83" viewBox="0 0 81 83" fill="none" xmlns="http://www.w3.org/2000/svg">
<rect width="81" height="82.0266" rx="40.5" fill="#0D0D0D" fill-opacity="0.49"/>
<rect x="0.5" y="0.5" width="80" height="81.0266" rx="40" stroke="black" stroke-opacity="0.05"/>
<path d="M61.0625 32.0564V49.9533C61.0669 50.2206 61.0041 50.4846 60.88 50.72C60.7559 50.9553 60.5747 51.1543 60.3538 51.2977C60.1151 51.4452 59.8401 51.5202 59.5611 51.5138C59.2822 51.5075 59.0107 51.4202 58.7786 51.2621L52.5768 47.0396C52.4762 46.971 52.3937 46.8782 52.3367 46.7692C52.2797 46.6603 52.2499 46.5387 52.25 46.4152V35.6114C52.2502 35.4882 52.2802 35.367 52.3371 35.2584C52.3941 35.1499 52.4765 35.0573 52.5768 34.9889L58.7786 30.7646C59.0481 30.5812 59.3693 30.4939 59.6924 30.5163C60.0154 30.5387 60.3222 30.6695 60.565 30.8883C60.7245 31.0356 60.8515 31.216 60.9373 31.4175C61.0231 31.6189 61.0658 31.8368 61.0625 32.0564ZM23.9619 23.5046C23.8329 23.3561 23.6763 23.2352 23.5013 23.149C23.3262 23.0627 23.1361 23.0128 22.9421 23.0022C22.748 22.9915 22.5538 23.0203 22.3706 23.0868C22.1875 23.1534 22.0192 23.2564 21.8754 23.3899C21.7315 23.5234 21.6151 23.6847 21.5327 23.8645C21.4504 24.0444 21.4038 24.2391 21.3957 24.4374C21.3876 24.6357 21.4181 24.8337 21.4854 25.0199C21.5528 25.2061 21.6557 25.3768 21.7881 25.5221L23.5598 27.5133H19.9375C19.1584 27.5133 18.4113 27.8294 17.8604 28.392C17.3095 28.9546 17 29.7177 17 30.5133V51.5133C17 52.309 17.3095 53.072 17.8604 53.6346C18.4113 54.1972 19.1584 54.5133 19.9375 54.5133H47.5941L51.1631 58.5221C51.2921 58.6705 51.4487 58.7914 51.6237 58.8777C51.7988 58.9639 51.9889 59.0138 52.1829 59.0245C52.377 59.0351 52.5712 59.0063 52.7544 58.9398C52.9375 58.8732 53.1058 58.7702 53.2496 58.6367C53.3935 58.5032 53.5099 58.3419 53.5923 58.1621C53.6746 57.9823 53.7212 57.7876 53.7293 57.5892C53.7374 57.3909 53.7069 57.1929 53.6395 57.0067C53.5722 56.8205 53.4693 56.6498 53.3369 56.5046L23.9619 23.5046ZM48.0273 46.0889C48.1266 46.2039 48.2579 46.285 48.4036 46.3214C48.5493 46.3579 48.7025 46.3478 48.8425 46.2927C48.9825 46.2375 49.1025 46.1399 49.1866 46.013C49.2706 45.8861 49.3145 45.7359 49.3125 45.5827V30.5133C49.3125 29.7177 49.003 28.9546 48.4521 28.392C47.9012 27.8294 47.1541 27.5133 46.375 27.5133H33.1562C33.0134 27.5119 32.8732 27.553 32.7529 27.6317C32.6325 27.7104 32.5373 27.8232 32.4789 27.9564C32.4204 28.0895 32.4012 28.2372 32.4237 28.3813C32.4462 28.5254 32.5094 28.6597 32.6055 28.7677L48.0273 46.0889Z" fill="#B6B6B6"/>
</svg>
